<svg xmlns="http://www.w3.org/2000/svg" viewBox="0 0 100 100" fill="none">
  <defs>
    <clipPath id="r"><rect width="100" height="100" rx="18"/></clipPath>
  </defs>
  <g clip-path="url(#r)">
    <rect width="100" height="100" fill="#EFC983"/>
    <path d="M0 0H100V54H0Z" fill="#F6DDA3" opacity=".72"/>
    <circle cx="55" cy="43" r="38" fill="#D96F3D"/>
    <path d="M0 67C17 55 33 58 48 49C64 39 76 45 100 33V100H0Z" fill="#766B51" opacity=".72"/>
    <path d="M0 82C22 70 39 72 56 62C73 52 86 55 100 47V100H0Z" fill="#1D1D18" opacity=".9"/>
  </g>
  <path d="M27 34C27 27 32 22 39 22H61C68 22 73 27 73 34V47C73 54 68 59 61 59H48L35 72V59C30 58 27 53 27 47V34Z" fill="#F6DDA3" stroke="#262722" stroke-width="5" stroke-linejoin="round"/>
  <path d="M38 39H62M38 50H55" stroke="#262722" stroke-width="5" stroke-linecap="round"/>
  <path d="M33 77L67 43M67 77L33 43" stroke="#D96F3D" stroke-width="5" stroke-linecap="round"/>
</svg>
