<svg xmlns="http://www.w3.org/2000/svg" viewBox="0 0 100 100" fill="none">
  <defs>
    <clipPath id="r"><rect width="100" height="100" rx="18"/></clipPath>
  </defs>
  <g clip-path="url(#r)">
    <rect width="100" height="100" fill="#EFC983"/>
    <path d="M0 0H100V54H0Z" fill="#F6DDA3" opacity=".72"/>
    <circle cx="55" cy="43" r="38" fill="#D96F3D"/>
    <path d="M0 67C17 55 33 58 48 49C64 39 76 45 100 33V100H0Z" fill="#766B51" opacity=".72"/>
    <path d="M0 82C22 70 39 72 56 62C73 52 86 55 100 47V100H0Z" fill="#1D1D18" opacity=".9"/>
  </g>
  <path d="M34 22H66" stroke="#262722" stroke-width="6" stroke-linecap="round"/>
  <path d="M42 25V46L29 70C27 74 30 78 35 78H65C70 78 73 74 71 70L58 46V25" fill="#F6DDA3" stroke="#262722" stroke-width="5" stroke-linecap="round" stroke-linejoin="round"/>
  <path d="M36 63C45 58 55 68 64 63" stroke="#D96F3D" stroke-width="6" stroke-linecap="round"/>
  <path d="M41 56L48 63L61 48" stroke="#262722" stroke-width="6" stroke-linecap="round" stroke-linejoin="round"/>
</svg>
