<svg xmlns="http://www.w3.org/2000/svg" viewBox="0 0 100 100" fill="none">
  <defs>
    <clipPath id="r"><rect width="100" height="100" rx="18"/></clipPath>
  </defs>
  <g clip-path="url(#r)">
    <rect width="100" height="100" fill="#EFC983"/>
    <path d="M0 0H100V54H0Z" fill="#F6DDA3" opacity=".72"/>
    <circle cx="55" cy="43" r="38" fill="#D96F3D"/>
    <path d="M0 67C17 55 33 58 48 49C64 39 76 45 100 33V100H0Z" fill="#766B51" opacity=".72"/>
    <path d="M0 82C22 70 39 72 56 62C73 52 86 55 100 47V100H0Z" fill="#1D1D18" opacity=".9"/>
  </g>
  <rect x="24" y="22" width="52" height="56" rx="6" fill="#F6DDA3" stroke="#262722" stroke-width="5"/>
  <path d="M36 38H66M36 52H56M36 66H63" stroke="#262722" stroke-width="5" stroke-linecap="round"/>
  <circle cx="34" cy="38" r="5" fill="#D96F3D"/>
  <circle cx="34" cy="52" r="5" fill="#766B51"/>
  <circle cx="34" cy="66" r="5" fill="#E79A63"/>
</svg>
